<?xml version="1.0" encoding="utf-8"?>
<!-- Generator: Adobe Illustrator 24.1.1, SVG Export Plug-In . SVG Version: 6.00 Build 0)  -->
<svg version="1.1" id="Layer_1" xmlns="http://www.w3.org/2000/svg" xmlns:xlink="http://www.w3.org/1999/xlink" x="0px" y="0px"
	 viewBox="0 0 506 506" style="enable-background:new 0 0 506 506;" xml:space="preserve">
<path d="M257.6,259.3c-3.2,0-5.5,0.7-6.7,2.1c-1.2,1.4-1.9,3.9-1.9,7.6v10.4c0,9.6,0.7,16,2.1,19.1c1.4,3.2,4.2,4.7,8.5,4.7
	c11.1,0,16.7-6.5,16.7-19.6C276.2,267.4,270,259.3,257.6,259.3z"/>
<path d="M255.1,238.1c5.4,0,9.4-1.7,12-5c2.6-3.3,3.8-8.6,3.8-15.7c0-6.9-1.3-12.2-4-16c-2.6-3.8-6.4-5.7-11.2-5.7
	c-2.6,0-4.3,0.7-5.3,2.1c-1,1.4-1.5,4-1.5,7.7v22.6c0,3.6,0.5,6.1,1.4,7.6C251.3,237.4,252.9,238.1,255.1,238.1z"/>
<path d="M0,0.5v506h506V0.5H0z M172.5,303.5c-2.3,6.6-5.1,12.5-8.4,17.6c-1.7,2.5-3.1,4.2-4.2,5c-1.1,0.8-2.5,1.3-4.2,1.3
	c-1.4,0-3.4-0.2-6-0.7c-4.7-0.9-11-1.4-18.8-1.6H37.8c-3.7,0-6.6-0.8-8.7-2.5c-2.1-1.6-3.1-4-3.1-7c0-2.1,0.4-3.7,1.3-4.6
	c0.9-1,2.9-2.2,6-3.6c2.2-1,3.8-2.1,4.9-3.5c1.1-1.4,1.9-3.4,2.5-6.2c2.4-11.1,3.6-26,3.6-44.7c0-28.3-1.8-46.1-5.3-53.5
	c-0.7-1.5-1.5-2.5-2.4-3.1c-0.9-0.6-2.7-1.3-5.5-2.1c-4.2-1.2-6.3-4-6.3-8.3c0-2.3,0.7-4.4,2.1-6.3c1.4-1.8,3.2-3,5.5-3.6
	c2.9-0.7,8.4-1,16.6-1h56.5c11.4,0,19.8-0.2,25-0.7c5.2-0.5,10.3-1.4,15.3-2.9c1.5-0.4,2.7-0.7,3.6-0.7c3.8,0,7.2,2.1,10.1,6.2
	c4.8,6.7,7.3,14.7,7.3,24.2c0,4.8-1,8.5-3,11.3c-2,2.7-4.8,4.1-8.3,4.1c-2.4,0-4.3-0.5-5.7-1.5c-1.4-1-3.2-3.2-5.4-6.6
	c-3.2-4.9-7.3-8.2-12.3-9.8c-4.9-1.6-13.1-2.5-24.3-2.5c-8.4,0-13.6,1.5-15.4,4.5c-1,1.6-1.5,3.8-1.7,6.5c-0.2,2.7-0.3,9.6-0.3,20.8
	c0,4.4,0.7,7.1,2.2,8.2c1.5,1.1,5.3,1.6,11.5,1.6c3.1,0,5.3-0.6,6.7-1.9c1.4-1.3,2.3-3.6,2.6-6.9c0.5-4.2,1-7.2,1.6-8.7
	c0.5-1.6,1.6-2.9,3-4.1c1.5-1.3,3.3-2,5.4-2c3,0,5.6,1.4,7.7,4.3c1.5,2.1,2.8,5.9,3.9,11.3c1.1,5.4,1.6,11,1.6,16.9
	c0,11.6-1.8,21.1-5.4,28.5c-2,4-5,6-9,6c-2.5,0-4.2-0.6-5.2-1.9c-1-1.3-1.7-3.9-2.2-8c-1.1-8.3-5.9-12.4-14.5-12.4
	c-3.3,0-5.5,1-6.8,3.1c-1.2,2.1-1.8,6-1.8,11.6c0,3.4,0.2,7.9,0.7,13.3c0.5,5.5,1,9.1,1.5,10.8c0.6,2.2,2.4,3.7,5.4,4.6
	c3,0.8,8.1,1.3,15.2,1.3c11,0,19.3-1.4,24.8-4.2c5.6-2.8,10.1-7.9,13.6-15.3c2-4.2,3.9-7.1,5.5-8.6c1.6-1.5,3.8-2.2,6.4-2.2
	c3.1,0,5.6,1.3,7.6,4c2,2.7,3,6,3,10.1C175.9,291.4,174.8,296.9,172.5,303.5z M324.4,308.8c-10.2,11.5-25.2,17.2-45.2,17.2
	c-2.7,0-9.4-0.2-20-0.5c-9.7-0.4-15.6-0.6-17.8-0.7l-14.7,0.1c-10.3,0.1-17.9,0.4-22.6,0.7c-4.2,0.4-7.3,0.5-9.1,0.5
	c-4.5,0-8-1.1-10.7-3.4c-2.6-2.3-3.8-5-3.8-8.1c0-2,0.5-3.7,1.4-4.8c1-1.2,3.3-3,6.9-5.5c2.1-1.5,3.6-3.8,4.4-6.9
	c0.8-3.1,1.7-9.8,2.6-20.1c1.4-16,2.1-35.6,2.1-59c0-8.6-0.6-14.3-1.7-17.1c-1.1-2.8-3.8-5.1-8-7c-4.8-2-7.3-5.1-7.3-9
	c0-3.2,1.4-5.9,4.3-7.9c2.9-2,6.6-3.1,11.2-3.1c2.5,0,5.7,0.1,9.6,0.3c6.4,0.3,13.4,0.4,20.9,0.4c5.5,0,16.3-0.2,32.4-0.7
	c5.1-0.1,9.6-0.2,13.7-0.2c9.7,0,17.6,0.8,23.6,2.4c6,1.6,11.2,4.2,15.5,8c7.2,6.1,10.8,14.2,10.8,24.4c0,5.1-1.1,10-3.2,14.8
	c-2.1,4.8-5,8.6-8.6,11.5c-2.6,2.1-3.8,3.9-3.8,5.6c0,1.8,1.5,3.4,4.6,4.6c6,2.4,11.5,6.5,16.4,12.2c5.1,5.9,7.6,13.4,7.6,22.3
	C335.9,290.5,332.1,300.1,324.4,308.8z M460.4,312.8c-13,10.1-30.1,15.2-51.1,15.2c-9.4,0-19.3-1.1-29.7-3.4
	c-10.4-2.2-17.9-4.9-22.5-7.9c-3.5-2.3-6.7-7.5-9.5-15.3c-2.8-7.9-4.2-15.5-4.2-23c0-3.6,0.7-6.3,2.2-8.1c1.8-2.3,4.1-3.5,6.9-3.5
	c2.8,0,5.5,1.4,8,4.3c1.5,1.6,5.2,6.8,10.9,15.5c2.7,4.1,7,7.5,12.9,10.2c5.9,2.7,12,4.1,18.3,4.1c5.4,0,9.8-1,13.2-3
	c3.4-2,5.1-4.6,5.1-7.7c0-2.9-1.3-5.5-4-7.6c-2.6-2.1-6.9-4.1-12.9-5.9c-10.5-3.3-18.5-6.3-24-9.1c-5.5-2.7-10.6-6.2-15.4-10.4
	c-11.6-10.3-17.4-21.9-17.4-34.9c0-6.4,1.5-12.7,4.5-18.8c3-6.1,7.3-11.4,12.7-15.9c12.3-10.3,27.3-15.5,45-15.5
	c7.5,0,17.4,1.9,29.7,5.6c1.5,0.4,2.6,0.7,3.5,0.7c0.7,0,2.9-0.7,6.6-2c1.2-0.4,2.4-0.7,3.7-0.7c4.9,0,10.1,3.9,15.5,11.6
	c5.5,7.8,8.2,15.2,8.2,22.2c0,4.1-1.2,7.6-3.7,10.4c-2.5,2.8-5.4,4.2-9,4.2c-2.9,0-5.3-0.6-7.1-1.8c-1.8-1.2-5.9-4.7-12.1-10.4
	c-8.8-8.2-17.4-12.3-25.9-12.3c-4.1,0-7.4,1-9.8,3c-2.5,2-3.7,4.6-3.7,7.8c0,6.4,5.6,11.2,16.8,14.4c15.2,4.5,24.9,7.7,29.1,9.8
	c18.7,9.1,28,22.5,28,40.1C479.5,290.2,473.1,302.9,460.4,312.8z"/>
</svg>
